<?xml version="1.0" encoding="utf-8"?>
<!-- Generator: Adobe Illustrator 19.0.0, SVG Export Plug-In . SVG Version: 6.00 Build 0)  -->
<svg version="1.1" id="objects" xmlns="http://www.w3.org/2000/svg" xmlns:xlink="http://www.w3.org/1999/xlink" x="0px" y="0px"
	 viewBox="0 0 1500 1122" style="enable-background:new 0 0 1500 1122;" xml:space="preserve">
<style type="text/css">
	.st0{fill:url(#SVGID_1_);}
	.st1{fill:#FFFFFF;}
</style>
<g>
	<linearGradient id="SVGID_1_" gradientUnits="userSpaceOnUse" x1="653.0349" y1="293.8156" x2="653.0349" y2="850.4898">
		<stop  offset="0" style="stop-color:#83E3AB"/>
		<stop  offset="1" style="stop-color:#008484"/>
	</linearGradient>
	<path class="st0" d="M961.7,561c0-170.2-138.5-308.6-308.6-308.6c-170.2,0-308.7,138.5-308.7,308.6
		c0,170.2,138.5,308.7,308.7,308.7c54,0,107-14.3,153.9-41.4l120.3,41.4l-24.7-127.3C941.3,689.2,961.7,626.8,961.7,561z"/>
</g>
<g>
	<g>
		<g>
			<g>
				<path class="st1" d="M564.7,804.1c-13.8,2-27.7,3-41.4,3C549.1,807.1,561.6,806.1,564.7,804.1z"/>
				<path class="st1" d="M927,532.5c-59.5-68.5-204.4-210.3-390.9-216.9c-35.4-1.3-69.8,3.1-102.9,11.4
					c-62.1,58.9-100.9,142.1-100.9,234.3c0,90.8,37.7,173,98.3,231.8c30.7,8.9,61.8,14.1,92.6,14.1c13.8,0,27.6-1.1,41.4-3
					c146.7-20.7,294.6-143.6,358.7-203C942.9,582.9,944.5,552.6,927,532.5z M556.2,766c-113.1,0-204.8-91.7-204.8-204.8
					c0-113.1,91.7-204.8,204.8-204.8S761,448.1,761,561.2C761,674.3,669.3,766,556.2,766z"/>
				<path class="st1" d="M466.9,712.7V411.4l260.9,150.6L466.9,712.7z"/>
			</g>
		</g>
	</g>
</g>
</svg>
